<?xml version="1.0" standalone="no"?>
<!DOCTYPE svg PUBLIC "-//W3C//DTD SVG 20010904//EN"
 "http://www.w3.org/TR/2001/REC-SVG-20010904/DTD/svg10.dtd">
<svg version="1.0" xmlns="http://www.w3.org/2000/svg"
 width="1152.000000pt" height="1152.000000pt" viewBox="0 0 1152.000000 1152.000000"
 preserveAspectRatio="xMidYMid meet">
<metadata>
Created by potrace 1.11, written by Peter Selinger 2001-2013
</metadata>
<g transform="translate(0.000000,1152.000000) scale(0.100000,-0.100000)"
fill="#000000" stroke="none">
<path d="M5710 10160 c0 -20 -7 -20 -635 -20 -558 0 -639 2 -659 16 -23 14
-25 14 -40 -7 -11 -17 -13 -26 -4 -36 13 -16 40 -17 55 -2 13 13 463 20 463 7
0 -4 12 -3 28 0 22 6 130 7 267 2 11 0 64 1 117 2 103 3 119 -6 30 -16 -30 -4
-73 -11 -95 -16 -23 -5 -58 -12 -77 -15 -143 -24 -410 -120 -606 -216 -135
-67 -302 -171 -429 -267 -84 -64 -339 -322 -407 -412 -187 -248 -331 -557
-387 -830 -10 -52 -20 -90 -21 -85 -1 6 -3 198 -3 428 -2 324 1 421 11 429 25
21 11 59 -25 64 -25 4 -41 -54 -17 -63 12 -4 14 -83 14 -569 0 -439 -3 -564
-13 -563 -28 3 -32 -3 -31 -48 0 -42 3 -48 22 -51 l23 -3 -1 -352 c-1 -287 -4
-356 -16 -371 -20 -28 -18 -33 17 -52 17 -8 28 -11 25 -6 -4 6 -2 13 4 17 14
8 13 42 -1 47 -8 3 -12 69 -13 221 -1 207 5 262 20 180 4 -21 8 -45 9 -53 11
-57 55 -210 65 -225 3 -5 12 -29 18 -52 12 -41 122 -265 164 -333 38 -62 92
-145 98 -150 3 -3 24 -30 47 -60 113 -147 252 -283 449 -438 l29 -23 -35 19
c-19 11 -89 48 -155 83 -66 35 -129 69 -140 76 -11 7 -30 17 -43 22 -12 6 -21
16 -20 22 5 19 -30 35 -49 23 -33 -22 -8 -69 31 -60 16 4 88 -26 106 -44 3 -3
39 -22 80 -43 81 -40 200 -103 295 -157 33 -18 81 -44 107 -58 55 -28 61 -35
60 -73 0 -17 4 -28 11 -26 18 3 12 -63 -18 -188 -8 -33 -17 -79 -21 -103 -6
-37 -11 -44 -35 -49 -27 -5 -29 -9 -29 -54 0 -37 4 -49 15 -49 18 0 18 4 4
-62 -6 -29 -20 -63 -31 -75 -34 -37 5 -84 40 -49 13 13 14 20 5 34 -6 10 -8
31 -5 47 5 26 6 23 19 -25 22 -88 73 -163 147 -216 23 -17 25 -21 10 -21 -11
0 -27 6 -36 14 -10 9 -25 12 -37 8 -21 -6 -26 -21 -15 -49 7 -19 43 -21 50 -3
3 8 25 14 59 15 51 1 55 -1 55 -21 0 -21 5 -23 50 -23 48 0 56 6 52 37 -1 4
149 6 333 6 217 0 332 -4 328 -10 -4 -6 -1 -7 8 -1 22 14 240 14 232 0 -5 -8
-3 -8 8 0 20 15 722 17 713 2 -5 -7 -2 -8 7 -2 22 14 240 14 232 0 -5 -8 -3
-8 8 0 8 6 51 10 99 10 80 -1 85 -2 84 -23 0 -19 4 -21 53 -20 47 2 53 4 53
23 0 19 6 22 46 22 26 1 56 -5 70 -15 20 -13 27 -13 40 -3 20 17 14 54 -9 58
-10 2 -26 -3 -35 -11 -9 -8 -26 -14 -36 -14 -18 0 -17 2 5 16 64 42 116 111
142 188 20 61 26 71 32 53 4 -12 2 -27 -4 -33 -29 -29 3 -66 43 -51 24 9 17
64 -8 64 -7 0 -13 6 -14 13 0 6 -3 23 -6 37 -16 67 -16 80 -1 80 12 0 15 13
15 55 0 54 -1 55 -24 49 -22 -5 -26 -1 -35 33 -9 32 -40 175 -57 262 -3 14 -7
28 -10 33 -3 4 3 8 14 8 15 0 18 7 17 30 -1 17 5 36 14 43 19 17 122 73 396
217 44 23 113 60 153 82 41 22 80 37 90 34 25 -8 44 8 40 35 -4 32 -47 40 -55
10 -6 -22 -31 -38 -198 -126 -60 -32 -129 -69 -152 -81 -24 -12 -43 -21 -43
-20 0 2 31 26 69 55 166 123 370 343 503 541 114 171 237 446 284 635 4 17 8
32 9 35 1 3 5 31 9 63 5 31 11 59 15 61 3 2 6 -96 5 -217 -1 -161 -4 -230 -14
-249 -10 -22 -11 -30 0 -43 16 -19 25 -19 45 1 14 15 14 19 0 40 -13 20 -15
75 -15 374 l0 350 23 0 c20 0 22 5 22 50 1 48 -5 56 -37 51 -5 0 -8 251 -8
560 0 467 3 563 14 575 18 17 10 51 -14 57 -34 9 -54 -35 -28 -61 8 -8 12
-126 12 -432 1 -231 -2 -420 -5 -420 -3 0 -14 37 -23 83 -21 100 -18 89 -40
162 -27 93 -78 221 -124 310 -14 28 -29 57 -33 65 -21 41 -105 175 -111 178
-5 2 -8 10 -8 17 0 7 -4 15 -8 17 -5 2 -24 26 -42 53 -38 56 -58 79 -145 173
-33 36 -58 70 -57 76 2 6 0 8 -4 4 -4 -5 -35 18 -68 50 -71 66 -158 143 -179
157 -84 58 -226 152 -242 161 -197 110 -362 181 -550 239 -171 52 -176 53
-215 60 -19 4 -39 8 -45 9 -17 5 -89 20 -100 21 -5 1 -28 3 -49 3 -22 1 -36 5
-33 8 4 4 218 7 476 7 415 0 471 -2 492 -16 21 -15 25 -15 40 -1 23 21 13 54
-17 54 -12 0 -26 -4 -29 -10 -4 -6 -230 -10 -646 -10 -632 0 -639 0 -639 20 0
17 -7 20 -50 20 -43 0 -50 -3 -50 -20z m-960 -1979 c0 -14 8 -17 48 -15 63 2
62 2 56 19 -9 22 43 19 119 -6 170 -57 312 -210 351 -379 20 -82 20 -80 -4
-80 -18 0 -20 -7 -20 -55 0 -42 3 -53 14 -49 8 3 16 2 19 -3 10 -17 -14 -110
-47 -180 -60 -125 -207 -251 -331 -281 -68 -17 -106 -22 -101 -14 10 16 -10
30 -44 32 -55 3 -60 1 -60 -20 0 -22 0 -22 -95 2 -59 15 -127 47 -120 58 3 6
0 7 -8 4 -29 -11 -168 131 -205 210 -53 112 -67 196 -33 196 15 0 18 8 18 50
0 42 -3 50 -18 50 -24 0 -25 28 -3 100 26 87 63 148 133 219 87 87 153 126
262 155 59 15 69 13 69 -13z m1917 5 c-3 -8 1 -20 9 -26 10 -9 14 -9 14 -1 0
9 5 9 20 1 14 -7 20 -7 20 0 0 5 3 9 8 9 21 -4 32 3 32 17 0 26 92 10 178 -32
155 -76 280 -239 299 -390 4 -35 2 -42 -16 -47 -17 -4 -20 -13 -19 -51 0 -42
7 -51 31 -47 13 2 7 -55 -12 -110 -30 -87 -71 -155 -132 -217 -88 -89 -171
-131 -317 -162 -4 0 -9 9 -12 20 -4 18 -13 22 -53 24 -26 1 -48 -2 -48 -6 -2
-8 -6 -25 -8 -32 -6 -17 -201 48 -201 67 0 6 -3 7 -7 4 -7 -7 -58 28 -111 77
-45 41 -107 136 -130 200 -20 53 -38 145 -26 133 15 -15 39 12 38 42 -3 57 -4
61 -23 61 -17 0 -19 5 -14 38 30 199 183 370 383 427 63 19 104 19 97 1z"/>
<path d="M10316 9998 c3 -5 10 -6 15 -3 13 9 11 12 -6 12 -8 0 -12 -4 -9 -9z"/>
<path d="M1835 9680 c3 -5 8 -10 11 -10 2 0 4 5 4 10 0 6 -5 10 -11 10 -5 0
-7 -4 -4 -10z"/>
<path d="M8555 9531 c-3 -5 -2 -12 3 -15 5 -3 9 1 9 9 0 17 -3 19 -12 6z"/>
<path d="M1986 9522 c-3 -5 1 -9 9 -9 8 0 12 4 9 9 -3 4 -7 8 -9 8 -2 0 -6 -4
-9 -8z"/>
<path d="M9836 9522 c-3 -5 1 -9 9 -9 8 0 12 4 9 9 -3 4 -7 8 -9 8 -2 0 -6 -4
-9 -8z"/>
<path d="M1033 9365 c0 -8 4 -12 9 -9 5 3 6 10 3 15 -9 13 -12 11 -12 -6z"/>
<path d="M8875 8400 c3 -5 8 -10 11 -10 2 0 4 5 4 10 0 6 -5 10 -11 10 -5 0
-7 -4 -4 -10z"/>
<path d="M706 7758 c3 -5 10 -6 15 -3 13 9 11 12 -6 12 -8 0 -12 -4 -9 -9z"/>
<path d="M1666 7758 c3 -5 10 -6 15 -3 13 9 11 12 -6 12 -8 0 -12 -4 -9 -9z"/>
<path d="M10473 7605 c0 -8 4 -12 9 -9 5 3 6 10 3 15 -9 13 -12 11 -12 -6z"/>
<path d="M8873 7285 c0 -8 4 -12 9 -9 5 3 6 10 3 15 -9 13 -12 11 -12 -6z"/>
<path d="M1835 6480 c3 -5 8 -10 11 -10 2 0 4 5 4 10 0 6 -5 10 -11 10 -5 0
-7 -4 -4 -10z"/>
<path d="M7593 5845 c0 -8 4 -12 9 -9 5 3 6 10 3 15 -9 13 -12 11 -12 -6z"/>
<path d="M2146 5838 c3 -5 10 -6 15 -3 13 9 11 12 -6 12 -8 0 -12 -4 -9 -9z"/>
<path d="M2410 5813 c-19 -14 -20 -17 -6 -32 15 -16 12 -19 -37 -34 -67 -21
-64 -21 -70 4 -4 15 -12 20 -29 17 -18 -2 -23 -9 -24 -35 -1 -54 -22 -83 -61
-83 -33 0 -33 0 -33 -50 0 -27 4 -50 10 -50 12 0 -178 -380 -191 -381 -5 -1
-13 -3 -19 -4 -5 -1 -18 -3 -27 -4 -15 -1 -18 -10 -17 -45 1 -24 4 -49 8 -55
9 -14 -11 -51 -29 -51 -20 0 -28 -17 -21 -45 5 -18 11 -23 28 -20 12 3 25 10
30 17 5 8 8 -1 8 -24 0 -20 4 -39 9 -42 15 -9 20 -55 5 -49 -7 2 -18 -5 -24
-17 -16 -30 2 -48 46 -48 45 0 64 -17 64 -58 0 -33 0 -33 48 -31 26 0 49 4 52
9 3 4 84 -31 180 -78 96 -47 218 -106 270 -131 52 -26 98 -51 102 -57 4 -6 8
-8 8 -4 0 5 30 -7 68 -26 37 -19 77 -37 90 -41 12 -3 22 -11 22 -16 0 -5 3 -8
8 -7 8 2 53 -19 401 -189 130 -64 272 -132 316 -153 44 -21 223 -108 397 -193
174 -85 326 -158 337 -162 12 -3 21 -11 21 -16 0 -5 3 -8 8 -7 16 4 102 -43
102 -57 0 -14 -45 -37 -495 -255 -420 -204 -604 -294 -657 -321 -32 -17 -58
-27 -58 -22 0 4 -4 3 -8 -3 -4 -5 -45 -29 -92 -51 -213 -103 -670 -326 -714
-349 -26 -14 -54 -23 -62 -20 -8 3 -13 1 -11 -4 3 -12 -225 -123 -232 -113 -5
7 -36 8 -88 4 -7 -1 -13 -14 -13 -30 0 -36 -22 -54 -63 -54 -18 0 -38 -4 -44
-10 -21 -16 -15 -44 11 -51 24 -6 25 -7 10 -41 -7 -19 -14 -46 -14 -60 0 -23
-2 -25 -15 -12 -8 9 -24 13 -35 10 -27 -7 -28 -53 0 -60 19 -5 37 -38 31 -58
-2 -5 -4 -31 -5 -58 l-2 -48 33 6 c29 4 35 1 46 -23 6 -15 14 -29 17 -32 3 -3
29 -54 59 -115 29 -60 57 -117 62 -125 26 -45 35 -81 32 -130 -3 -65 2 -86 20
-73 6 5 18 8 25 7 6 -1 17 -2 22 -3 6 0 10 -10 10 -21 0 -11 4 -20 10 -20 6 0
6 -9 0 -24 -10 -26 3 -46 31 -46 20 0 42 24 31 35 -4 4 4 5 18 0 14 -4 42 -9
62 -12 35 -5 36 -6 25 -30 -9 -21 -8 -27 8 -39 24 -18 37 -14 52 16 12 24 53
48 53 31 0 -4 23 -8 50 -7 50 0 50 0 50 34 l0 33 188 91 c103 49 225 109 272
131 47 23 90 42 95 42 6 0 12 3 15 6 6 8 541 271 555 273 6 1 17 6 24 11 23
14 527 261 816 400 72 34 229 111 350 170 294 144 445 215 456 215 5 0 9 5 9
10 0 6 6 10 13 10 6 0 75 32 152 70 77 38 142 66 145 62 7 -10 93 -10 100 0 3
4 80 -29 170 -73 91 -45 226 -110 300 -146 74 -36 249 -122 389 -189 139 -68
257 -124 261 -124 4 0 13 -7 20 -15 7 -9 15 -14 17 -11 2 2 70 -29 151 -69 81
-40 188 -92 237 -115 50 -23 198 -95 330 -160 132 -64 278 -135 325 -158 71
-33 446 -216 610 -296 25 -12 54 -27 65 -34 11 -6 64 -32 118 -58 95 -44 99
-47 95 -75 -5 -31 2 -35 56 -38 16 0 35 4 42 10 16 13 51 -7 57 -33 7 -25 36
-34 53 -16 11 11 12 21 5 39 -8 23 -6 25 21 27 17 1 39 7 51 13 17 9 23 8 37
-11 24 -31 55 -23 56 15 2 38 14 75 25 76 5 1 18 3 29 4 11 1 25 3 30 4 12 1
14 101 1 101 -11 0 173 370 190 380 7 5 22 6 35 4 20 -4 22 0 26 46 1 28 -1
55 -5 59 -12 12 13 49 35 54 20 6 24 37 7 54 -14 14 -47 5 -52 -16 -3 -9 -5
-2 -6 15 0 17 -6 45 -12 63 -10 28 -9 35 10 52 11 11 21 24 21 28 0 16 -29 33
-47 27 -32 -10 -68 16 -73 54 -5 34 -6 34 -57 35 -28 0 -49 -3 -47 -7 3 -4 3
-8 0 -8 -3 0 -134 63 -292 140 -157 77 -289 140 -293 140 -4 0 -13 6 -20 13
-6 6 -15 12 -19 13 -13 1 -602 285 -632 304 -8 6 -24 14 -35 19 -53 24 -273
130 -480 231 -126 62 -303 148 -392 191 -96 47 -163 85 -163 93 0 13 136 84
475 246 72 34 236 114 365 177 129 64 280 137 335 163 55 26 235 114 400 195
165 81 328 160 363 176 35 16 136 65 225 109 89 43 164 76 167 72 3 -4 26 -8
53 -9 47 -1 47 -1 47 32 0 37 38 70 69 60 28 -9 51 5 51 30 0 16 -7 25 -25 29
-23 6 -24 9 -13 29 15 26 15 28 17 68 1 28 2 29 17 15 19 -20 29 -20 47 -1 19
19 10 55 -13 55 -18 0 -37 34 -31 55 1 6 4 30 5 55 l3 46 -36 -1 -36 0 -96
193 c-54 105 -93 192 -88 192 5 0 9 23 9 50 0 51 -2 54 -45 52 -24 -1 -57 49
-45 69 12 18 -7 49 -30 49 -21 0 -44 -32 -32 -45 4 -4 -6 -1 -23 8 -16 8 -45
18 -64 22 -21 5 -29 10 -21 15 16 10 4 46 -18 55 -10 4 -21 -1 -29 -12 -28
-41 -33 -43 -98 -38 l-65 4 0 -35 0 -35 -187 -91 c-104 -50 -255 -123 -338
-163 -82 -40 -249 -121 -370 -180 -121 -59 -308 -150 -415 -202 -302 -148
-603 -294 -735 -358 -66 -32 -210 -102 -320 -156 -578 -282 -701 -341 -715
-340 -8 0 -31 2 -50 5 -19 2 -43 0 -52 -5 -13 -7 -93 28 -314 136 -163 80
-300 145 -304 145 -4 0 -13 7 -20 15 -7 9 -15 14 -17 11 -3 -2 -71 28 -151 68
-81 40 -206 101 -279 137 -72 35 -129 68 -126 73 4 5 1 6 -5 2 -11 -6 -164 62
-170 77 -2 4 -8 7 -14 7 -13 0 -50 17 -363 170 -126 62 -302 147 -390 190
-171 83 -564 274 -705 343 -47 23 -88 46 -92 52 -4 5 -8 7 -8 3 0 -11 -135 60
-136 72 -1 5 -2 20 -3 33 -1 20 -6 22 -51 22 -27 0 -50 -3 -50 -7 0 -4 -11 -2
-25 4 -14 6 -25 19 -25 28 0 24 -34 31 -60 13z m-480 -810 c0 -21 -3 -24 -9
-14 -5 8 -7 20 -4 28 8 21 13 15 13 -14z m7673 14 c3 -8 1 -20 -4 -28 -6 -10
-9 -7 -9 14 0 29 5 35 13 14z m-7673 -2894 c0 -21 -3 -24 -9 -14 -5 8 -7 20
-4 28 8 21 13 15 13 -14z m7673 -8 c-7 -21 -13 -19 -13 6 0 11 4 18 10 14 5
-3 7 -12 3 -20z m-7128 -745 c-3 -5 -11 -10 -16 -10 -6 0 -7 5 -4 10 3 6 11
10 16 10 6 0 7 -4 4 -10z m6605 0 c-8 -5 -22 -9 -30 -9 -10 0 -8 3 5 9 27 12
43 12 25 0z"/>
<path d="M3915 5361 c-3 -5 -2 -12 3 -15 5 -3 9 1 9 9 0 17 -3 19 -12 6z"/>
<path d="M7746 3762 c-3 -5 1 -9 9 -9 8 0 12 4 9 9 -3 4 -7 8 -9 8 -2 0 -6 -4
-9 -8z"/>
<path d="M1835 3280 c3 -5 8 -10 11 -10 2 0 4 5 4 10 0 6 -5 10 -11 10 -5 0
-7 -4 -4 -10z"/>
<path d="M1676 2318 c3 -5 10 -6 15 -3 13 9 11 12 -6 12 -8 0 -12 -4 -9 -9z"/>
<path d="M7106 2158 c3 -5 10 -6 15 -3 13 9 11 12 -6 12 -8 0 -12 -4 -9 -9z"/>
<path d="M6155 2001 c-3 -5 -2 -12 3 -15 5 -3 9 1 9 9 0 17 -3 19 -12 6z"/>
<path d="M10473 1995 c0 -8 4 -12 9 -9 5 3 6 10 3 15 -9 13 -12 11 -12 -6z"/>
<path d="M1033 1685 c0 -8 4 -12 9 -9 5 3 6 10 3 15 -9 13 -12 11 -12 -6z"/>
<path d="M4556 1682 c-3 -5 1 -9 9 -9 8 0 12 4 9 9 -3 4 -7 8 -9 8 -2 0 -6 -4
-9 -8z"/>
<path d="M10953 1525 c0 -8 4 -12 9 -9 5 3 6 10 3 15 -9 13 -12 11 -12 -6z"/>
<path d="M11106 1522 c-3 -5 1 -9 9 -9 8 0 12 4 9 9 -3 4 -7 8 -9 8 -2 0 -6
-4 -9 -8z"/>
</g>
</svg>
